<svg id="Capa_1" enable-background="new 0 0 512.001 512.001" height="512" viewBox="0 0 512.001 512.001" width="512" xmlns="http://www.w3.org/2000/svg"><g id="XMLID_1384_"><g id="XMLID_433_"><path id="XMLID_462_" d="m383.714 344.248c12.255 0 23.775-4.772 32.441-13.438 17.887-17.888 17.887-46.993 0-64.881l-50.739-50.739c-3.906-3.905-10.236-3.905-14.143 0l-50.739 50.739c-17.887 17.888-17.887 46.993 0 64.881 8.666 8.665 20.187 13.437 32.441 13.437 5.32 0 10.499-.905 15.369-2.632v7.559c0 8.379-6.817 15.196-15.196 15.196h-6.601c-5.522 0-10 4.477-10 10s4.478 10 10 10h63.594c5.522 0 10-4.477 10-10s-4.478-10-10-10h-6.601c-8.379 0-15.196-6.817-15.196-15.196v-7.559c4.87 1.728 10.05 2.633 15.37 2.633zm-69.037-27.579c-10.09-10.09-10.09-26.508 0-36.597l43.669-43.667 43.667 43.667c10.09 10.09 10.09 26.508 0 36.597-4.888 4.888-11.387 7.58-18.299 7.58s-13.41-2.691-18.298-7.579c-1.875-1.875-4.419-2.929-7.071-2.929s-5.196 1.054-7.071 2.929c-4.888 4.888-11.386 7.579-18.298 7.579s-13.412-2.693-18.299-7.58z"/><path id="XMLID_1143_" d="m497.447 337.001c-5.522 0-10 4.477-10 10v145h-258.205v-387.37h258.205v152.371c0 5.523 4.478 10 10 10s10-4.477 10-10v-162.371c0-5.523-4.478-10-10-10h-87.656l-12.507-48.799c-1.358-5.302-6.729-8.527-12.046-7.235l-94.45 22.934-27.055-46.554c-2.775-4.775-8.895-6.396-13.67-3.622l-240.534 139.789c-4.775 2.775-6.396 8.896-3.622 13.67l204.689 352.211c1.79 3.08 5.083 4.976 8.646 4.976h6.257 271.947c5.522 0 10-4.477 10-10v-155c.001-5.523-4.476-10-9.999-10zm-117.085-286.639 8.783 34.269h-149.913zm-352.139 103.049 76.846-44.659 85.592 324.167zm181.019-58.78v330.322l-82.636-312.975 83.046-20.165c-.263.895-.41 1.839-.41 2.818zm-68.336-6.706 110.56-64.253 19.051 32.781z"/><path id="XMLID_1209_" d="m297.064 171.956-12.86-37.906c-1.376-4.058-5.185-6.787-9.47-6.787s-8.094 2.729-9.47 6.787l-12.86 37.906c-1.774 5.23 1.027 10.908 6.257 12.683 5.232 1.775 10.908-1.027 12.683-6.257l3.391-9.994 3.391 9.994c1.413 4.165 5.302 6.79 9.469 6.79 1.065 0 2.148-.172 3.214-.533 5.228-1.775 8.03-7.454 6.255-12.683z"/><path id="XMLID_1212_" d="m432.485 462.582c1.377 4.058 5.185 6.787 9.47 6.787s8.093-2.729 9.47-6.787l12.86-37.906c1.774-5.23-1.026-10.908-6.257-12.683-5.229-1.774-10.907 1.027-12.683 6.257l-3.391 9.994-3.391-9.994c-1.775-5.23-7.452-8.033-12.683-6.257-5.23 1.774-8.031 7.453-6.257 12.683z"/><path id="XMLID_1213_" d="m497.45 292.001c-2.641 0-5.21 1.07-7.07 2.93s-2.93 4.44-2.93 7.07 1.069 5.21 2.93 7.07 4.43 2.93 7.07 2.93c2.63 0 5.199-1.07 7.069-2.93 1.86-1.86 2.931-4.44 2.931-7.07s-1.07-5.21-2.931-7.07c-1.87-1.86-4.439-2.93-7.069-2.93z"/></g></g></svg>